<?xml version="1.0" encoding="utf-8"?>
<!-- Generator: Adobe Illustrator 16.0.0, SVG Export Plug-In . SVG Version: 6.00 Build 0)  -->
<!DOCTYPE svg PUBLIC "-//W3C//DTD SVG 1.1//EN" "http://www.w3.org/Graphics/SVG/1.1/DTD/svg11.dtd">
<svg version="1.1" id="Layer_1" xmlns="http://www.w3.org/2000/svg" xmlns:xlink="http://www.w3.org/1999/xlink" x="0px" y="0px"
	 width="595.28px" height="841.89px" viewBox="0 0 595.28 841.89" enable-background="new 0 0 595.28 841.89" xml:space="preserve">
<g>
	<g>
		<linearGradient id="SVGID_1_" gradientUnits="userSpaceOnUse" x1="40.7764" y1="408.5586" x2="40.7764" y2="342.1831">
			<stop  offset="0" style="stop-color:#FFD25C"/>
			<stop  offset="0.2634" style="stop-color:#D6A36A"/>
			<stop  offset="0.6129" style="stop-color:#FFF79D"/>
			<stop  offset="1" style="stop-color:#AD733E"/>
		</linearGradient>
		<path fill="url(#SVGID_1_)" d="M55.881,355.779h-0.689c-0.406-3.082-1.752-5.777-4.035-8.095c-2.29-2.315-5.305-3.473-9.046-3.473
			c-2.442,0-4.613,0.575-6.515,1.725c-1.897,1.15-3.363,2.72-4.398,4.706c-1.037,1.984-1.558,4.258-1.558,6.818
			c0,1.984,0.308,3.747,0.933,5.287c0.616,1.537,1.528,2.896,2.737,4.078c1.21,1.18,2.635,2.28,4.272,3.299
			c1.641,1.023,3.854,2.309,6.645,3.863c4.665,2.56,8.288,5.115,10.878,7.659c2.588,2.548,3.884,6.037,3.884,10.466
			c0,2.706-0.699,5.318-2.093,7.832c-1.396,2.521-3.504,4.585-6.322,6.193c-2.82,1.613-6.315,2.419-10.487,2.419
			c-2.62,0-4.938-0.281-6.949-0.841c-2.014-0.563-4.055-1.346-6.126-2.353c-0.864-0.288-1.454-0.431-1.771-0.431
			c-0.604,0-0.999,0.217-1.187,0.646c-0.187,0.431-0.439,1.367-0.756,2.805h-0.732V392.46h0.732
			c1.036,4.662,3.052,8.185,6.042,10.572c2.991,2.389,6.63,3.583,10.919,3.583c3.221,0,5.803-0.605,7.747-1.812
			c1.939-1.208,3.285-2.676,4.036-4.402c0.747-1.726,1.122-3.452,1.122-5.179c0-3.566-1.088-6.48-3.26-8.739
			s-5.475-4.567-9.907-6.927c-3.046-1.67-5.304-2.964-6.775-3.883c-1.466-0.921-2.954-2.116-4.466-3.584
			c-1.509-1.468-2.712-3.201-3.603-5.199c-0.892-2-1.337-4.293-1.337-6.883c0-2.993,0.79-5.855,2.374-8.588
			c1.58-2.733,3.827-4.927,6.732-6.582c2.904-1.654,6.198-2.482,9.879-2.482c2.794,0,5.657,0.475,8.592,1.425
			c0.46,0.23,1.079,0.344,1.854,0.344c0.95,0,1.599-0.647,1.945-1.941h0.689V355.779z"/>
		<linearGradient id="SVGID_2_" gradientUnits="userSpaceOnUse" x1="108.5024" y1="408.8164" x2="108.5024" y2="341.7085">
			<stop  offset="0" style="stop-color:#FFD25C"/>
			<stop  offset="0.2634" style="stop-color:#D6A36A"/>
			<stop  offset="0.6129" style="stop-color:#FFF79D"/>
			<stop  offset="1" style="stop-color:#AD733E"/>
		</linearGradient>
		<path fill="url(#SVGID_2_)" d="M142.099,375.413c0,5.958-1.476,11.497-4.424,16.616c-2.95,5.122-6.968,9.199-12.061,12.235
			c-5.091,3.033-10.731,4.553-16.915,4.553c-6.217,0-11.915-1.52-17.095-4.553c-5.176-3.036-9.255-7.125-12.229-12.279
			c-2.981-5.149-4.468-10.76-4.468-16.831c0-4.661,0.886-9.04,2.653-13.14c1.771-4.1,4.242-7.674,7.424-10.724
			c3.18-3.049,6.804-5.408,10.874-7.078c4.07-1.667,8.321-2.503,12.749-2.503c4.348,0,8.52,0.799,12.522,2.395
			c3.996,1.597,7.583,3.908,10.765,6.927c3.18,3.021,5.677,6.604,7.485,10.745C141.192,365.919,142.099,370.465,142.099,375.413z
			 M134.503,375.587c0-8.46-1.497-15.076-4.489-19.852c-2.991-4.775-6.445-7.978-10.357-9.602c-3.912-1.626-7.592-2.441-11.05-2.441
			c-2.672,0-5.447,0.439-8.325,1.317c-2.877,0.879-5.677,2.481-8.392,4.812c-2.72,2.331-4.958,5.612-6.714,9.84
			c-1.756,4.229-2.631,9.453-2.631,15.667c0,5.465,0.725,10.234,2.177,14.305c1.454,4.071,3.454,7.397,6,9.968
			c2.547,2.579,5.354,4.431,8.414,5.567c3.065,1.138,6.248,1.708,9.563,1.708c2.961,0,5.961-0.527,8.994-1.578
			c3.033-1.049,5.811-2.761,8.333-5.134c2.518-2.374,4.559-5.596,6.126-9.669C133.719,386.425,134.503,381.456,134.503,375.587z"/>
		<linearGradient id="SVGID_3_" gradientUnits="userSpaceOnUse" x1="179.0317" y1="407.1338" x2="179.0317" y2="343.5654">
			<stop  offset="0" style="stop-color:#FFD25C"/>
			<stop  offset="0.2634" style="stop-color:#D6A36A"/>
			<stop  offset="0.6129" style="stop-color:#FFF79D"/>
			<stop  offset="1" style="stop-color:#AD733E"/>
		</linearGradient>
		<path fill="url(#SVGID_3_)" d="M158.919,406.443h0.864c1.554,0,2.928-0.61,4.124-1.833c1.194-1.224,1.787-2.943,1.787-5.158
			V351.46c0-2.645-0.666-4.486-2.004-5.523c-1.341-1.034-2.93-1.582-4.771-1.639v-0.732h20.325v0.732
			c-1.782,0.057-3.365,0.59-4.747,1.594c-1.376,1.012-2.065,2.866-2.065,5.568v46.395c0,2.761,0.689,4.675,2.065,5.741
			c1.381,1.063,3.64,1.597,6.778,1.597h5.481c2.384,0,4.294-0.288,5.718-0.865c1.424-0.574,2.553-1.452,3.387-2.631
			c0.833-1.182,1.684-2.85,2.544-5.007h0.738l-2.421,10.444h-37.804V406.443z"/>
		<linearGradient id="SVGID_4_" gradientUnits="userSpaceOnUse" x1="270.3755" y1="407.1338" x2="270.3755" y2="343.5654">
			<stop  offset="0" style="stop-color:#FFD25C"/>
			<stop  offset="0.2634" style="stop-color:#D6A36A"/>
			<stop  offset="0.6129" style="stop-color:#FFF79D"/>
			<stop  offset="1" style="stop-color:#AD733E"/>
		</linearGradient>
		<path fill="url(#SVGID_4_)" d="M250.265,406.443h0.862c1.556,0,2.93-0.61,4.124-1.833c1.196-1.224,1.793-2.943,1.793-5.158V351.46
			c0-2.645-0.671-4.486-2.01-5.523c-1.335-1.034-2.928-1.582-4.769-1.639v-0.732h20.328v0.732c-1.784,0.057-3.367,0.59-4.75,1.594
			c-1.379,1.012-2.069,2.866-2.069,5.568v46.395c0,2.761,0.69,4.675,2.069,5.741c1.383,1.063,3.642,1.597,6.777,1.597h5.48
			c2.392,0,4.296-0.288,5.722-0.865c1.418-0.574,2.551-1.452,3.383-2.631c0.834-1.182,1.684-2.85,2.55-5.007h0.73l-2.416,10.444
			h-37.805V406.443z"/>
		<linearGradient id="SVGID_5_" gradientUnits="userSpaceOnUse" x1="336.502" y1="408.8164" x2="336.502" y2="341.7085">
			<stop  offset="0" style="stop-color:#FFD25C"/>
			<stop  offset="0.2634" style="stop-color:#D6A36A"/>
			<stop  offset="0.6129" style="stop-color:#FFF79D"/>
			<stop  offset="1" style="stop-color:#AD733E"/>
		</linearGradient>
		<path fill="url(#SVGID_5_)" d="M370.098,375.413c0,5.958-1.471,11.497-4.424,16.616c-2.946,5.122-6.968,9.199-12.062,12.235
			c-5.091,3.033-10.728,4.553-16.915,4.553c-6.215,0-11.908-1.52-17.095-4.553c-5.177-3.036-9.254-7.125-12.226-12.279
			c-2.981-5.149-4.471-10.76-4.471-16.831c0-4.661,0.885-9.04,2.653-13.14c1.774-4.1,4.248-7.674,7.426-10.724
			c3.176-3.049,6.801-5.408,10.872-7.078c4.076-1.667,8.323-2.503,12.749-2.503c4.351,0,8.521,0.799,12.521,2.395
			c3.997,1.597,7.589,3.908,10.767,6.927c3.18,3.021,5.676,6.604,7.49,10.745C369.194,365.919,370.098,370.465,370.098,375.413z
			 M362.505,375.587c0-8.46-1.496-15.076-4.488-19.852c-2.989-4.775-6.445-7.978-10.359-9.602
			c-3.912-1.626-7.593-2.441-11.051-2.441c-2.672,0-5.447,0.439-8.321,1.317c-2.873,0.879-5.677,2.481-8.398,4.812
			c-2.717,2.331-4.953,5.612-6.707,9.84c-1.759,4.229-2.633,9.453-2.633,15.667c0,5.465,0.726,10.234,2.179,14.305
			c1.454,4.071,3.452,7.397,5.996,9.968c2.55,2.579,5.355,4.431,8.42,5.567c3.062,1.138,6.246,1.708,9.556,1.708
			c2.963,0,5.965-0.527,8.998-1.578c3.033-1.049,5.812-2.761,8.329-5.134c2.52-2.374,4.562-5.596,6.128-9.669
			C361.721,386.425,362.505,381.456,362.505,375.587z"/>
		<linearGradient id="SVGID_6_" gradientUnits="userSpaceOnUse" x1="410.877" y1="407.1338" x2="410.877" y2="340.4141">
			<stop  offset="0" style="stop-color:#FFD25C"/>
			<stop  offset="0.2634" style="stop-color:#D6A36A"/>
			<stop  offset="0.6129" style="stop-color:#FFF79D"/>
			<stop  offset="1" style="stop-color:#AD733E"/>
		</linearGradient>
		<path fill="url(#SVGID_6_)" d="M438.886,355.95h-0.692c-0.314-4.142-1.523-6.827-3.628-8.047
			c-2.098-1.224-4.684-1.837-7.766-1.837h-12.646v53.386c0,4.519,2.303,6.847,6.906,6.992v0.691H400.82v-0.691
			c1.898-0.058,3.504-0.61,4.813-1.661c1.305-1.05,1.963-2.828,1.963-5.331v-53.386H394.95c-3.074,0-5.662,0.613-7.746,1.837
			c-2.086,1.221-3.303,3.905-3.644,8.047h-0.693v-15.536h0.693c0.46,0.719,0.862,1.252,1.205,1.597
			c0.345,0.345,0.79,0.64,1.337,0.884s1.188,0.418,1.923,0.519c0.734,0.1,1.602,0.151,2.61,0.151h41.171
			c2.734,0,4.863-1.051,6.387-3.151h0.692V355.95z"/>
		<linearGradient id="SVGID_7_" gradientUnits="userSpaceOnUse" x1="483.8008" y1="408.8164" x2="483.8008" y2="343.5654">
			<stop  offset="0" style="stop-color:#FFD25C"/>
			<stop  offset="0.2634" style="stop-color:#D6A36A"/>
			<stop  offset="0.6129" style="stop-color:#FFF79D"/>
			<stop  offset="1" style="stop-color:#AD733E"/>
		</linearGradient>
		<path fill="url(#SVGID_7_)" d="M515.177,407.134H501.84v-10.531l-0.217-0.172c-1.84,4.287-4.597,7.424-8.262,9.409
			c-3.672,1.984-7.506,2.977-11.505,2.977c-4.519,0-8.583-1.081-12.191-3.237c-3.609-2.157-6.263-4.817-7.959-7.983
			c-1.211-2.246-1.972-4.582-2.29-7.013c-0.317-2.431-0.475-4.955-0.475-7.573v-31.634c0-1.9-0.384-3.497-1.141-4.791
			c-0.764-1.292-2.583-2.057-5.46-2.287v-0.732h19.976v0.732c-2.931,0.346-4.804,1.193-5.606,2.545
			c-0.809,1.353-1.211,2.865-1.211,4.533v31.115c0,6.332,0.653,11.004,1.945,14.027c1.379,3.222,3.452,5.737,6.215,7.55
			c2.759,1.814,5.897,2.721,9.406,2.721c1.47,0,3.207-0.259,5.221-0.778c2.018-0.516,3.899-1.381,5.655-2.588
			c5.266-3.597,7.898-9.365,7.898-17.306v-34.74c0-1.755-0.406-3.309-1.209-4.662c-0.805-1.353-2.707-2.157-5.694-2.417v-0.732
			h20.323v0.732c-2.935,0.145-4.82,0.965-5.653,2.459c-0.832,1.497-1.253,3.008-1.253,4.532v48.162c0,1.669,0.28,2.985,0.846,3.949
			c0.558,0.964,1.336,1.648,2.33,2.051c0.99,0.401,2.205,0.733,3.647,0.992V407.134z"/>
		<linearGradient id="SVGID_8_" gradientUnits="userSpaceOnUse" x1="547.8359" y1="408.5586" x2="547.8359" y2="342.1831">
			<stop  offset="0" style="stop-color:#FFD25C"/>
			<stop  offset="0.2634" style="stop-color:#D6A36A"/>
			<stop  offset="0.6129" style="stop-color:#FFF79D"/>
			<stop  offset="1" style="stop-color:#AD733E"/>
		</linearGradient>
		<path fill="url(#SVGID_8_)" d="M562.94,355.779h-0.693c-0.4-3.082-1.741-5.777-4.031-8.095c-2.291-2.315-5.307-3.473-9.04-3.473
			c-2.446,0-4.619,0.575-6.521,1.725c-1.895,1.15-3.363,2.72-4.397,4.706c-1.04,1.984-1.56,4.258-1.56,6.818
			c0,1.984,0.313,3.747,0.933,5.287c0.615,1.537,1.533,2.896,2.74,4.078c1.207,1.18,2.631,2.28,4.273,3.299
			c1.638,1.023,3.85,2.309,6.647,3.863c4.661,2.56,8.28,5.115,10.872,7.659c2.591,2.548,3.885,6.037,3.885,10.466
			c0,2.706-0.697,5.318-2.094,7.832c-1.397,2.521-3.504,4.585-6.322,6.193c-2.82,1.613-6.315,2.419-10.488,2.419
			c-2.616,0-4.935-0.281-6.946-0.841c-2.017-0.563-4.059-1.346-6.127-2.353c-0.864-0.288-1.454-0.431-1.771-0.431
			c-0.603,0-0.999,0.217-1.187,0.646c-0.186,0.431-0.438,1.367-0.758,2.805h-0.73V392.46h0.73c1.038,4.662,3.05,8.185,6.042,10.572
			c2.996,2.389,6.633,3.583,10.919,3.583c3.221,0,5.808-0.605,7.752-1.812c1.938-1.208,3.282-2.676,4.033-4.402
			c0.747-1.726,1.122-3.452,1.122-5.179c0-3.566-1.091-6.48-3.26-8.739c-2.173-2.259-5.47-4.567-9.905-6.927
			c-3.054-1.67-5.308-2.964-6.772-3.883c-1.471-0.921-2.959-2.116-4.467-3.584c-1.511-1.468-2.713-3.201-3.604-5.199
			c-0.892-2-1.341-4.293-1.341-6.883c0-2.993,0.794-5.855,2.375-8.588c1.584-2.733,3.827-4.927,6.734-6.582
			c2.904-1.654,6.202-2.482,9.877-2.482c2.794,0,5.659,0.475,8.594,1.425c0.46,0.23,1.077,0.344,1.854,0.344
			c0.949,0,1.598-0.647,1.939-1.941h0.693V355.779z"/>
	</g>
	<linearGradient id="SVGID_9_" gradientUnits="userSpaceOnUse" x1="182.9824" y1="219.4072" x2="405.6299" y2="219.4072">
		<stop  offset="0" style="stop-color:#FFD25C"/>
		<stop  offset="0.2634" style="stop-color:#D6A36A"/>
		<stop  offset="0.6129" style="stop-color:#FFF79D"/>
		<stop  offset="1" style="stop-color:#AD733E"/>
	</linearGradient>
	<path fill="url(#SVGID_9_)" d="M404.489,198.112c-2.771-0.102-5.538-0.156-8.23-0.156c-8.13,0-15.81,0.502-23.104,1.439
		c0.12-13.863-1.428-28.876-4.756-45.055l-0.266-1.26l-1.229,0.361c-0.134,0.04-13.083,3.891-28.494,13.017
		c-3.05,1.81-9.846,6.198-13.324,8.903c0.408-1.67,0.734-3.353,0.858-5.044c0.175-2.381,0.095-4.77-0.182-7.166
		c-0.607-5.091-2.056-9.925-4.806-14.284c-5.239-8.32-12.799-13.063-22.539-14.284c-5.345-0.67-10.582-0.15-15.563,2.018
		c-6.725,2.925-11.366,7.954-14.058,14.668c-3.141,7.819-3.992,15.635-2.479,23.417c0.415,1.938,1.17,4.825,2.429,8.064
		c0.191,0.483,0.388,0.962,0.604,1.445c3.296,7.367,7.593,14.119,12.384,20.575c2.364,3.196,4.869,6.281,7.501,9.306
		c5.523,6.366,11.197,12.608,16.19,19.414c4.485,6.115,8.488,12.505,11.607,19.445c4.461,9.932,4.607,19.971,0.861,30.092
		c-2.2,5.949-6.02,10.617-11.757,13.541c-3.114,1.59-6.368,2.409-9.723,2.646c3.738-35.059-8.026-57.005-14.762-66.387
		c0.024-0.037,0.05-0.076,0.08-0.115c-0.384-0.462-0.786-0.916-1.181-1.374c-1.129-1.472-2.047-2.523-2.618-3.142
		c-1.403-4.542-3.829-11.839-7.201-20.098c-5.11-12.514-13.485-29.75-24.413-41.144c0.903,0.509,1.815,1.031,2.738,1.579
		c4.6,2.727,9.738,6.152,14.959,10.294c-0.315-1.168-0.597-2.381-0.814-3.622c-4.544-3.441-8.979-6.366-13.001-8.748
		c-15.411-9.126-28.362-12.977-28.494-13.017l-1.229-0.361l-0.263,1.26c-3.328,16.179-4.88,31.192-4.76,45.055
		c-7.287-0.937-14.976-1.439-23.102-1.439c-2.692,0-5.455,0.054-8.232,0.156l-1.14,0.04v1.141c0,0.129,0.013,13.132,3.782,29.698
		c3.488,15.323,10.989,36.942,26.938,52.931c14.959,14.985,34.69,22.584,58.655,22.584c6.919,0,14.284-0.646,21.951-1.921
		c7.661,1.275,15.018,1.921,21.951,1.921c23.966,0,43.696-7.599,58.651-22.589c15.947-15.989,23.449-37.603,26.937-52.926
		c3.768-16.566,3.782-29.569,3.782-29.698v-1.141L404.489,198.112z M373.144,201.789c3.418-0.448,6.935-0.79,10.539-1.034
		c-3.233,1.28-6.867,3.102-10.711,5.268C373.048,204.621,373.106,203.214,373.144,201.789z M370.787,199.711
		c-2.588,0.377-5.103,0.828-7.581,1.325c1.672-2.485,4.585-7.03,7.348-12.255C370.748,192.5,370.828,196.149,370.787,199.711z
		 M370.535,188.442c-2.855,5.443-5.901,10.16-7.578,12.639c-4.449,0.899-8.722,1.993-12.812,3.28
		c3.145-4.708,12.208-18.819,18.574-34.29C369.619,176.392,370.226,182.517,370.535,188.442z M366.34,156.108
		c0.927,4.638,1.692,9.167,2.33,13.607c-6.452,15.769-15.747,30.188-18.793,34.729c-4.354,1.38-8.503,2.985-12.441,4.808
		c4.283-8.562,22.631-44.992,28.552-53.029C366.105,156.186,366.231,156.143,366.34,156.108z M365.698,156.323
		c-6.15,8.546-24.469,44.933-28.526,53.049c-6.244,2.91-11.962,6.376-17.137,10.398c4.24-9.105,20.351-42.836,32.979-58.307
		C358.749,158.809,363.301,157.143,365.698,156.323z M307.369,231.96c-0.022-0.032-0.046-0.061-0.058-0.094
		c-3.333-4.534-6.919-8.861-10.698-13.021c-0.195-0.201-0.375-0.402-0.703-0.765c0.021-0.014,0.036-0.03,0.05-0.047
		c-0.556-0.646-1.118-1.308-1.661-1.938c-0.141-0.154-0.288-0.308-0.402-0.442c-3.905-4.283-7.565-8.754-10.971-13.426
		c-4.316-5.919-8.167-12.111-11.217-18.795c-4.522-9.88-4.778-19.894-1.135-30.027c2.225-6.205,6.152-11.064,12.161-14.042
		c4.63-2.293,9.558-2.938,14.657-2.444c6.586,0.642,12.313,3.191,17.139,7.76c8.329,7.889,10.739,21.839,7.982,31.138
		c-1.465,4.918-3.714,9.443-6.349,13.784h2.88c0.601,0,2.555-4.712,2.862-5.354c0.742-1.559,1.396-3.2,1.986-4.868
		c1.133-0.89,2.59-2.035,3.977-3.113c0,0.024-0.013,0.054-0.021,0.081c3.456-2.566,6.838-4.819,9.999-6.761
		c-9.766,11.299-17.301,26.925-22.03,38.513c-4.504,11.011-7.323,20.361-8.274,23.66C307.488,231.83,307.425,231.893,307.369,231.96
		z M315.981,208.164c4.793-11.72,12.438-27.579,22.357-38.883c0.395-0.245,0.823-0.518,1.214-0.748
		c4.702-2.784,9.161-5.07,13.089-6.898c-12.761,15.798-28.934,49.8-32.924,58.378c-3.658,2.867-7.064,5.994-10.172,9.416
		c-0.597,0.657-1.162,1.332-1.726,2C308.863,227.848,311.643,218.789,315.981,208.164z M308.772,233.955
		c0.823-0.992,1.658-1.974,2.542-2.95c11.319-12.451,26.438-21.127,45.107-26c-11.303,5.076-21.899,13.63-29.197,20.367
		c-7.04,6.498-12.254,12.415-14.295,14.825C311.591,238.083,310.227,235.995,308.772,233.955z M319.388,252.149
		c-1.828-4.114-3.996-8.017-6.359-11.796c2.008-2.372,7.24-8.311,14.321-14.852c7.511-6.935,18.521-15.792,30.192-20.784
		c4.232-1.062,8.629-1.939,13.222-2.613c-0.049,1.803-0.134,3.575-0.237,5.334c-8.465,4.986-17.624,11.346-25.316,16.998
		c-15.343,11.257-28.344,22.143-28.47,22.251l0.114,0.143c0.388-0.336,30.417-25.438,53.653-39.172
		c-0.421,6.813-1.297,13.303-2.614,19.475c-20.125,13.91-41.579,28.017-46.313,31.125
		C321.006,256.218,320.279,254.185,319.388,252.149z M322.922,266.004c4.54-1.867,16.649-6.972,30.415-13.955
		c2.487-1.265,5.124-2.642,7.818-4.097c-2.507,5.613-5.488,10.877-8.983,15.761c-0.749,1.046-1.515,2.061-2.284,3.045
		c-12.956,5.019-24.112,8.365-27.541,9.362C322.966,272.738,323.163,269.368,322.922,266.004z M353.259,251.887
		c-13.715,6.957-25.78,12.052-30.357,13.928c-0.191-2.462-0.616-4.918-1.285-7.373c4.634-3.033,26.072-17.124,46.22-31.051
		c-1.569,7.21-3.753,13.977-6.555,20.291C358.513,249.178,355.808,250.593,353.259,251.887z M320.087,284.127
		c0.991-2.605,1.728-5.208,2.214-7.808c3.302-0.955,14.4-4.275,27.355-9.28c-6.935,8.772-14.811,15.2-22.147,19.864
		c-4.522,1.132-7.997,1.89-9.927,2.292C318.557,287.621,319.404,285.938,320.087,284.127z M317.463,289.401
		c1.826-0.373,5.171-1.104,9.557-2.196c-4.45,2.794-8.698,4.946-12.4,6.563c-0.344,0.15-0.67,0.275-1.005,0.421
		C315.075,292.757,316.358,291.152,317.463,289.401z M277.316,231.024c0.567,0.621,1.111,1.253,1.643,1.887c0,0,0,0,0,0.003
		c0.195,0.224,0.362,0.421,0.545,0.638c4.4,5.973,11.458,17.985,14.267,36.249c-4.422-9.636-13.511-21.402-18.591-27.626
		c0.017-0.031,0.039-0.063,0.063-0.097c-0.912-1.058-2.058-2.392-2.909-3.369c-2.549-2.912-7.129-7.908-13.012-13.336
		c-7.878-7.278-19.613-16.684-31.93-21.523c15.819,3.47,29.223,9.523,40.14,18.107c0.033,0.058,0.054,0.121,0.061,0.129l0.069-0.033
		C271.12,224.791,274.362,227.774,277.316,231.024z M293.792,299.278c-9.713-14.18-23.883-21.034-27.89-22.753
		c-0.743-3.118-1.031-6.32-0.866-9.474c5.051,3.046,21.05,13.581,29.51,29.022c-0.085,1.055-0.204,2.128-0.319,3.208
		C294.083,299.278,293.94,299.278,293.792,299.278z M294.576,295.684c-8.583-15.429-24.598-25.918-29.525-28.878
		c0.13-2.214,0.425-4.403,1.027-6.481c0.091-0.313,0.217-0.613,0.315-0.92c4.463,3.368,23.669,18.27,28.57,28.638
		C294.921,290.507,294.787,293.059,294.576,295.684z M294.963,287.501c-5.279-10.442-24.202-25.079-28.496-28.319
		c1.266-3.959,3.033-7.683,5.108-11.259c3.742,3.57,18.033,17.821,23.213,31.685C294.938,282.143,295,284.774,294.963,287.501z
		 M271.692,247.73c0.425-0.729,0.842-1.459,1.285-2.173c0.587-0.953,1.305-2.044,2.076-3.192
		c5.205,6.375,14.553,18.499,18.825,28.201c0.386,2.643,0.68,5.419,0.864,8.321C289.323,265.131,275.317,251.186,271.692,247.73z
		 M259.205,225.5c5.306,4.907,9.573,9.466,12.222,12.448l-0.044,0.043c0.037,0.044,0.812,0.933,2.045,2.41
		c-1.155,1.698-2.292,3.428-3.375,5.2c-0.168,0.288-0.33,0.577-0.502,0.863c-1.861-1.547-14.021-11.623-28.205-22.028
		c-7.047-5.173-15.321-10.953-23.162-15.716c-0.158-2.179-0.278-4.374-0.334-6.615c2.855,0.421,5.635,0.924,8.353,1.497
		C238.899,208.286,251.095,218.011,259.205,225.5z M269.46,246.621c-2.093,3.568-3.882,7.266-5.166,11.186
		c-5.579-3.659-24.632-16.209-43.201-28.993c-1.439-6.283-2.409-12.911-2.898-19.865
		C240.019,222.257,266.692,244.318,269.46,246.621z M264.235,257.988c-0.33,1.025-0.64,2.063-0.896,3.127
		c-0.341,1.432-0.53,2.869-0.651,4.307c-5.155-2.136-16.554-7.021-29.394-13.535c-1.702-0.868-3.48-1.791-5.295-2.744
		c-2.898-6.246-5.178-12.934-6.845-20.072C239.72,241.854,258.723,254.372,264.235,257.988z M233.21,252.049
		c12.892,6.535,24.332,11.432,29.469,13.561c-0.184,2.438-0.107,4.879,0.182,7.335c0.117,0.981,0.274,1.956,0.463,2.916
		c-3.849-1.136-12.934-3.928-23.662-7.958c-1.102-1.357-2.186-2.75-3.239-4.223c-3.174-4.453-5.937-9.219-8.301-14.273
		C229.864,250.33,231.571,251.215,233.21,252.049z M263.36,276.061c0.811,4.125,2.258,8.047,4.6,11.625
		c0.347,0.54,0.746,1.021,1.118,1.532c-1.413-0.293-3.689-0.783-6.636-1.483c-7.391-4.523-15.419-10.838-22.561-19.558
		C250.572,272.184,259.594,274.95,263.36,276.061z M269.234,289.432c0.946,1.268,1.934,2.471,3.003,3.544
		c-2.868-1.327-6.017-2.962-9.302-4.94C265.765,288.704,267.925,289.163,269.234,289.432z M265.958,276.786
		c4.135,1.787,17.983,8.581,27.565,22.487c-0.467-0.009-0.942-0.037-1.411-0.069c-6.545-4.81-15.122-7.882-19.264-9.182
		C269.529,286.351,267.183,281.731,265.958,276.786z M245.902,166.723l-0.021,0.021c11.058,11.365,19.527,28.798,24.686,41.42
		c3.288,8.046,5.672,15.178,7.086,19.734c-0.215-0.233-0.352-0.364-0.367-0.376l-0.111,0.117c-2.364-2.47-4.353-4.343-4.687-4.648
		c-2.143-1.885-4.402-3.65-6.758-5.322c-5.482-11.641-21.068-43.578-33.051-57.522C236.498,161.815,241.027,163.995,245.902,166.723
		z M222.273,156.108c1.81,0.597,5.494,1.898,10.307,3.999l-0.1,0.084c11.881,13.78,27.344,45.385,32.953,57.263
		c-5.079-3.584-10.626-6.684-16.654-9.283c-4.737-9.445-20.175-39.99-26.844-50.256C222.054,157.31,222.152,156.715,222.273,156.108
		z M221.885,158.169c6.651,10.3,21.805,40.255,26.634,49.89c-3.927-1.684-8.048-3.144-12.367-4.403
		c-3.182-4.806-10.756-16.765-16.717-30.292C220.059,168.429,220.89,163.357,221.885,158.169z M219.394,173.717
		c5.883,13.256,13.268,24.974,16.494,29.861c-4.033-1.168-8.23-2.153-12.604-2.96c-1.309-1.967-3.287-5.044-5.347-8.67
		C218.134,186.066,218.609,179.998,219.394,173.717z M217.919,192.286c1.96,3.43,3.834,6.357,5.121,8.289
		c-1.719-0.314-3.451-0.605-5.216-0.864C217.801,197.277,217.845,194.796,217.919,192.286z M215.472,201.789
		c0.046,1.843,0.128,3.655,0.231,5.456c-4.752-2.786-9.261-5.109-13.179-6.627C206.975,200.859,211.304,201.243,215.472,201.789z
		 M185.372,200.438c2.36-0.074,4.7-0.112,6.983-0.112c3.287,0,6.486,0.103,9.623,0.268c4.003,1.495,8.713,3.913,13.741,6.874
		c0.408,6.764,1.248,13.222,2.536,19.38c-13.352-9.234-26.024-18.333-32.782-24.045
		C185.415,201.826,185.391,201.018,185.372,200.438z M185.48,203.043c6.832,5.75,19.501,14.842,32.819,24.056
		c1.504,7.161,3.601,13.902,6.291,20.215c-12.664-6.871-26.836-15.637-36.756-24.869
		C186.275,214.051,185.697,207.072,185.48,203.043z M189.094,228.529c-0.455-1.984-0.851-3.915-1.202-5.78
		c9.971,9.232,24.161,17.977,36.806,24.831c2.687,6.258,5.957,12.1,9.821,17.507c0.285,0.405,0.584,0.78,0.873,1.173
		c-0.33-0.126-0.653-0.253-0.986-0.386c-13.084-5.184-29.885-12.939-40.898-22.03C191.58,238.385,190.146,233.164,189.094,228.529z
		 M193.621,244.161c11.034,9.027,27.713,16.726,40.716,21.881c0.423,0.164,0.838,0.321,1.257,0.492
		c6.167,8.254,13.147,14.61,19.932,19.456c-3.402-0.902-7.19-1.972-11.232-3.227c-11.84-3.677-27.867-9.613-40.854-17.831
		C199.237,258.086,196.035,250.944,193.621,244.161z M215.391,280.255c-4.595-4.597-8.457-9.693-11.729-14.973
		c12.947,8.125,28.819,13.998,40.579,17.655c4.229,1.313,8.175,2.422,11.692,3.348c6.154,4.346,12.116,7.471,17.109,9.654
		c3.128,1.365,6.035,2.446,8.651,3.308c1.422,0.588,2.898,1.089,4.444,1.466l0.011,0.061c-2.525-0.324-12.897-1.748-26.046-4.766
		c-12.087-2.77-28.7-7.427-43.333-14.436C216.308,281.135,215.841,280.709,215.391,280.255z M272.358,302.136
		c-22.364,0-40.898-6.792-55.164-20.161c14.525,6.883,30.914,11.468,42.867,14.208c13.214,3.03,23.633,4.455,26.106,4.772
		l0.004,0.074l0.853,0.181c0.004,0.004,0.017,0.006,0.041,0.008C281.979,301.824,277.064,302.136,272.358,302.136z M274.95,292.188
		c-0.646-0.561-1.202-1.217-1.782-1.843c4.198,1.348,12.269,4.302,18.548,8.832c-0.189-0.018-0.369-0.022-0.558-0.041
		C285.035,298.536,279.617,296.25,274.95,292.188z M373.231,280.251c-14.499,14.523-33.66,21.885-56.972,21.885h-0.01
		c-4.701,0-9.607-0.318-14.673-0.921c0.002,0,0.013,0,0.013-0.004l0.854-0.181l0.033-0.359c4.23-0.601,13.166-2,24.011-4.488
		c13.121-3.003,31.59-8.227,47.066-16.278C373.442,280.013,373.339,280.136,373.231,280.251z M373.948,279.489
		c-15.556,8.191-34.251,13.485-47.496,16.518c-10.141,2.329-18.61,3.701-23.134,4.361c0.081-0.026,0.163-0.051,0.242-0.08
		c3.36-0.974,7.463-2.362,12.012-4.35c5.33-2.331,11.764-5.729,18.354-10.551c2.633-0.721,5.435-1.535,8.385-2.451
		c12.806-3.982,30.509-10.596,43.979-19.888C382.919,268.83,378.849,274.432,373.948,279.489z M386.505,262.683
		c-13.491,9.39-31.348,16.074-44.243,20.08c-2.773,0.86-5.427,1.64-7.919,2.329c6.701-4.962,13.548-11.41,19.548-19.724
		c13.964-5.635,31.568-14.01,41.966-23.735C393.591,248.424,390.556,255.663,386.505,262.683z M399.522,228.529
		c-0.888,3.904-2.051,8.229-3.551,12.757c-10.275,9.735-27.863,18.134-41.881,23.806c0.002,0,0.002,0,0.002-0.005
		c4.164-5.822,7.624-12.159,10.424-18.969c13.059-7.236,27.279-16.322,36.628-25.779
		C400.705,222.932,400.173,225.672,399.522,228.529z M401.206,220.025c-9.287,9.464-23.507,18.571-36.576,25.828
		c2.602-6.381,4.611-13.188,6.022-20.419c13.95-9.693,26.864-19.052,32.569-24.252C403.104,204.348,402.689,211.275,401.206,220.025
		z M403.227,200.931c-5.614,5.152-18.533,14.524-32.517,24.251c1.156-6.033,1.924-12.347,2.262-18.955
		c4.106-2.33,7.948-4.238,11.308-5.521c3.885-0.25,7.877-0.38,11.979-0.38c2.284,0,4.623,0.038,6.983,0.112
		C403.242,200.583,403.23,200.759,403.227,200.931z"/>
</g>
</svg>
